<?xml version="1.0" standalone="no"?>
<!DOCTYPE svg PUBLIC "-//W3C//DTD SVG 20010904//EN"
 "http://www.w3.org/TR/2001/REC-SVG-20010904/DTD/svg10.dtd">
<svg version="1.0" xmlns="http://www.w3.org/2000/svg"
 width="64pt" height="64pt" viewBox="0 0 100.000000 100.000000"
 preserveAspectRatio="xMidYMid meet">
<metadata>
Created by potrace 1.16, written by Peter Selinger 2001-2019
</metadata>
<g transform="translate(0.000000,100.000000) scale(0.100000,-0.100000)"
fill="#000000" stroke="none">
<path d="M715 839 c-11 -6 -54 -45 -96 -86 l-76 -75 -153 31 c-179 36 -192 37
-213 13 -26 -28 -20 -46 21 -70 20 -12 74 -45 120 -74 l82 -54 -47 -62 -48
-63 -63 7 c-66 7 -92 -3 -92 -35 1 -15 80 -71 101 -71 22 0 6 30 -26 50 -19
12 -35 24 -35 26 0 3 30 3 68 -1 l67 -6 45 62 c25 34 117 136 205 226 157 161
161 163 203 163 l42 0 0 -42 c0 -42 -2 -46 -163 -203 -90 -88 -192 -180 -226
-205 l-62 -45 6 -67 c4 -38 4 -68 1 -68 -2 0 -14 16 -26 35 -20 32 -50 48 -50
26 0 -21 56 -100 71 -101 32 0 42 26 35 92 l-7 63 63 47 62 48 56 -88 c31 -48
65 -102 75 -119 22 -37 44 -42 68 -15 23 25 22 34 -14 211 l-31 153 81 82 c84
87 94 106 89 177 l-3 44 -55 2 c-30 2 -64 -2 -75 -8z m-236 -180 l53 -11 -33
-34 c-18 -19 -37 -34 -41 -34 -5 0 -34 16 -64 35 -59 38 -64 40 -64 25 0 -5
25 -27 56 -47 98 -65 41 -46 -67 22 -113 72 -138 91 -101 80 12 -3 22 -2 22 3
0 5 42 1 93 -9 50 -11 116 -24 146 -30z m196 -259 c19 -94 22 -125 13 -131 -9
-6 -9 -14 0 -35 16 -34 8 -43 -11 -12 -8 12 -40 63 -71 112 -31 48 -55 93 -53
99 2 6 23 -22 48 -61 24 -39 47 -71 52 -72 15 0 6 25 -33 86 -22 35 -40 67
-40 71 0 9 62 74 67 70 1 -2 14 -59 28 -127z"/>
</g>
</svg>
